<?xml version="1.0" encoding="UTF-8"?>
<!DOCTYPE svg PUBLIC "-//W3C//DTD SVG 1.1//EN" "http://www.w3.org/Graphics/SVG/1.1/DTD/svg11.dtd">
<!-- Creator: CorelDRAW X7 -->
<svg xmlns="http://www.w3.org/2000/svg" xml:space="preserve" width="3.14in" height="0.755701in" version="1.1" style="shape-rendering:geometricPrecision; text-rendering:geometricPrecision; image-rendering:optimizeQuality; fill-rule:evenodd; clip-rule:evenodd"
viewBox="0 0 3140 756"
 xmlns:xlink="http://www.w3.org/1999/xlink">
 <defs>
  <style type="text/css">
   <![CDATA[
    .fil0 {fill:white}
   ]]>
  </style>
 </defs>
 <g id="Layer_x0020_2">
  <metadata id="CorelCorpID_0Corel-Layer"/>
  <polygon class="fil0" points="276,77 276,331 276,429 342,363 342,0 0,0 0,611 0,705 66,639 66,545 66,131 66,74 67,71 67,71 68,66 74,66 127,66 127,66 131,66 138,66 138,74 138,470 138,567 204,501 204,390 204,74 204,66 211,66 215,66 215,66 239,66 265,66 268,66 276,66 276,74 "/>
 </g>
 <g id="Layer_x0020_3">
  <metadata id="CorelCorpID_1Corel-Layer"/>
  <path class="fil0" d="M480 268l0 -194 0 0 0 -74 -66 0 0 268 0 18 0 0 0 56 73 0 0 0 269 0 0 -66 -74 0 -195 0 -7 0 0 -8zm138 -137l0 -57 0 -74 -67 0 0 204 205 0 0 -66 -74 0 -57 0 -7 0 0 -7zm138 -65l0 -66 -67 0 0 66 67 0z"/>
 </g>
 <g id="Layer_x0020_4">
  <metadata id="CorelCorpID_2Corel-Layer"/>
  <path class="fil0" d="M348 552l12 -12 60 -60c90,0 180,0 269,0 0,24 0,48 0,71l-341 1zm341 137l-478 0 68 -68 2 -2 408 -1 0 71zm67 67c0,-114 0,-228 0,-342l-77 0 -286 0 -79 78 -263 264 93 0 612 0z"/>
 </g>
 <g id="Layer_x0020_5">
  <metadata id="CorelCorpID_3Corel-Layer"/>
  <rect class="fil0" x="914" width="31.3331" height="755.674"/>
 </g>
 <g id="Layer_x0020_6">
  <metadata id="CorelCorpID_4Corel-Layer"/>
  <path class="fil0" d="M1979 314l-99 -139 95 -134 -55 0 -68 98 -68 -98 -56 0 95 134 -99 139 55 0 72 -103 72 103 56 0zm-372 -108l-94 0 47 -109 47 109zm-24 -167l-44 0 -120 275 49 0 28 -66 129 0 28 66 50 0 -120 -275zm-259 80l0 195 48 0 0 -273 -51 0 -83 129 -83 -129 -51 0 0 273 47 0 0 -195 86 128 1 0 86 -128z"/>
 </g>
 <g id="Layer_x0020_7">
  <metadata id="CorelCorpID_5Corel-Layer"/>
  <path class="fil0" d="M3083 528c0,14 -5,25 -16,34 -10,8 -23,12 -41,12l-70 0 0 -92 70 0c18,0 32,4 42,12 10,7 15,19 15,34zm57 184l-74 -104c10,-2 19,-6 27,-11 8,-5 14,-10 20,-17 6,-7 10,-15 14,-24 3,-9 4,-19 4,-31 0,-13 -2,-25 -7,-36 -4,-11 -11,-20 -20,-27 -8,-7 -19,-13 -32,-17 -12,-4 -26,-6 -42,-6l-122 0 0 273 48 0 0 -95 60 0 67 95 57 0zm-291 -273l-202 0 0 273 204 0 0 -44 -156 0 0 -73 137 0 0 -43 -137 0 0 -70 154 0 0 -43zm-323 0l0 273 48 0 0 -273 -48 0zm-244 273l191 0 0 -44 -143 0 0 -229 -48 0 0 273zm-59 -273l-202 0 0 273 204 0 0 -44 -156 0 0 -73 137 0 0 -43 -137 0 0 -70 154 0 0 -43zm-310 137c0,13 -2,26 -7,37 -4,11 -11,21 -19,29 -8,9 -18,15 -30,20 -12,4 -25,6 -39,6l-54 0 0 -186 54 0c14,0 27,2 39,7 12,5 22,11 30,20 8,8 15,18 19,29 5,12 7,24 7,38zm50 -1c0,-19 -3,-37 -10,-54 -7,-17 -17,-31 -30,-43 -13,-12 -28,-22 -46,-29 -18,-7 -37,-10 -59,-10l-102 0 0 273 102 0c22,0 41,-4 59,-11 18,-7 33,-17 46,-29 13,-12 23,-26 30,-43 7,-17 10,-35 10,-54zm-355 1c0,13 -2,25 -7,37 -4,12 -11,22 -19,31 -8,9 -17,16 -29,21 -11,5 -23,7 -37,7 -13,0 -26,-2 -37,-8 -12,-5 -22,-12 -30,-21 -8,-8 -14,-19 -19,-31 -4,-11 -7,-24 -7,-37 0,-13 3,-26 7,-38 5,-12 11,-22 19,-31 8,-8 18,-15 29,-20 11,-5 24,-8 37,-8 14,0 26,3 38,8 11,5 21,12 29,21 8,9 15,19 19,31 5,12 7,24 7,38zm50 -1c0,-19 -3,-38 -10,-55 -7,-17 -17,-32 -29,-45 -13,-12 -28,-22 -45,-30 -18,-7 -37,-11 -58,-11 -21,0 -40,4 -58,11 -17,8 -32,18 -45,31 -13,13 -22,28 -29,45 -7,17 -11,35 -11,55 0,19 4,37 11,54 7,17 16,32 29,45 12,13 27,23 45,30 17,8 36,11 57,11 21,0 41,-3 58,-11 17,-8 32,-18 45,-31 13,-12 23,-27 30,-45 7,-17 10,-35 10,-54zm-427 94l-80 0 0 -75 76 0c19,0 33,4 42,10 9,7 14,16 14,27 0,13 -5,22 -14,29 -9,6 -22,9 -38,9zm-14 -115l-66 0 0 -73 69 0c16,0 27,3 36,10 8,6 12,14 12,26 0,12 -5,22 -14,28 -10,6 -22,9 -37,9zm9 -115l-122 0 0 273 126 0c15,0 29,-2 41,-5 12,-3 23,-8 32,-15 9,-6 16,-14 20,-23 5,-10 8,-20 8,-32 0,-10 -2,-18 -4,-25 -3,-7 -7,-13 -11,-19 -5,-5 -11,-9 -17,-13 -7,-4 -14,-7 -22,-10 5,-3 9,-6 14,-9 5,-4 9,-8 13,-13 3,-5 6,-11 8,-17 2,-7 3,-14 3,-22 0,-22 -8,-39 -24,-51 -16,-13 -38,-19 -65,-19z"/>
 </g>
</svg>
